<svg viewBox="0 0 1024 1024" xmlns="http://www.w3.org/2000/svg" fill="#201d1d" stroke="#201d1d" stroke-width="18.432"><g id="SVGRepo_bgCarrier" stroke-width="0"></g><g id="SVGRepo_tracerCarrier" stroke-linecap="round" stroke-linejoin="round" stroke="#CCCCCC" stroke-width="34.816"><path fill="#ffffff" d="M512 64a448 448 0 1 1 0 896 448 448 0 0 1 0-896zm-38.4 409.6H326.4a38.4 38.4 0 1 0 0 76.8h147.2v147.2a38.4 38.4 0 0 0 76.8 0V550.4h147.2a38.4 38.4 0 0 0 0-76.8H550.4V326.4a38.4 38.4 0 1 0-76.8 0v147.2z"></path></g><g id="SVGRepo_iconCarrier"><path fill="#ffffff" d="M512 64a448 448 0 1 1 0 896 448 448 0 0 1 0-896zm-38.4 409.6H326.4a38.4 38.4 0 1 0 0 76.8h147.2v147.2a38.4 38.4 0 0 0 76.8 0V550.4h147.2a38.4 38.4 0 0 0 0-76.8H550.4V326.4a38.4 38.4 0 1 0-76.8 0v147.2z"></path></g></svg>